<svg width="54" height="54" viewBox="0 0 54 54" fill="none" xmlns="http://www.w3.org/2000/svg">
<path d="M27 0C12.1123 0 0 12.1123 0 27C0 41.8877 12.1123 54 27 54C41.8881 54 54 41.8877 54 27C54 12.1123 41.8881 0 27 0ZM41.8056 20.0436L25.3657 37.6006C24.8745 38.1233 24.1898 38.4894 23.4723 38.4894C23.4689 38.4894 23.4651 38.4894 23.4617 38.4894C22.7481 38.4894 22.0655 38.1323 21.5726 37.6164L12.2097 27.7854C11.2129 26.7418 11.2503 25.0715 12.2935 24.0747C13.3371 23.0787 14.9914 23.1075 15.9879 24.1503L23.446 31.9513L37.9968 16.4666C38.9852 15.4162 40.6378 15.3611 41.6908 16.3512C42.7421 17.3395 42.7931 18.9919 41.8056 20.0436Z" fill="#61277F"/>
</svg>
