<svg width="39" height="38" viewBox="0 0 39 38" fill="none" xmlns="http://www.w3.org/2000/svg">
<path d="M28.8775 0.915048H13.6074C13.1811 0.915048 12.7722 1.082 12.4708 1.37919C12.1693 1.67638 12 2.07945 12 2.49973V6.46145C12 6.88541 12.1708 7.292 12.4749 7.59179C12.779 7.89158 13.1914 8.06 13.6214 8.06C14.0515 8.06 14.4639 7.89158 14.768 7.59179C15.0721 7.292 15.2429 6.88541 15.2429 6.46145V4.08442H27.2983V10.8788C27.2983 11.299 27.4676 11.7021 27.769 11.9993C28.0705 12.2965 28.4793 12.4634 28.9056 12.4634H35.741V34.1934C35.741 34.6195 35.9127 35.0281 36.2183 35.3294C36.5239 35.6307 36.9383 35.7999 37.3705 35.7999C37.8027 35.7999 38.2171 35.6307 38.5227 35.3294C38.8283 35.0281 39 34.6195 39 34.1934V10.8788C39.0007 10.669 38.9591 10.4612 38.8777 10.2673C38.7963 10.0735 38.6767 9.89756 38.5258 9.74967L30.0228 1.38253C29.8728 1.23375 29.6943 1.11582 29.4977 1.03557C29.3011 0.955325 29.0903 0.914358 28.8775 0.915048Z" fill="#61277F"/>
<path d="M1.42388 32.0609H4.55075V34.8666C4.55075 35.6429 4.85973 36.3873 5.40972 36.9362C5.95971 37.4851 6.70565 37.7935 7.48345 37.7935H30.0673C30.8451 37.7935 31.591 37.4851 32.141 36.9362C32.691 36.3873 33 35.6429 33 34.8666V18.686C33 17.9097 32.691 17.1653 32.141 16.6164C31.591 16.0675 30.8451 15.7591 30.0673 15.7591H21.5726L18.6399 10.8823H7.48345C6.70565 10.8823 5.95971 11.1907 5.40972 11.7396C4.85973 12.2885 4.55075 13.033 4.55075 13.8092V26.4089H13.4823L16.3139 20.7893C16.4438 20.532 16.6494 20.3204 16.9032 20.183C17.157 20.0456 17.4468 19.9889 17.7338 20.0205C18.0208 20.0521 18.2912 20.1706 18.5088 20.3599C18.7264 20.5493 18.8809 20.8006 18.9513 21.08L20.5289 27.2971L21.7425 24.8183C21.8569 24.5775 22.0373 24.3739 22.2628 24.231C22.4882 24.0882 22.7496 24.0118 23.0167 24.0109H28.3886C28.7641 24.0109 29.1242 24.1598 29.3897 24.4248C29.6552 24.6897 29.8044 25.0491 29.8044 25.4239C29.8044 25.7986 29.6552 26.158 29.3897 26.423C29.1242 26.688 28.7641 26.8369 28.3886 26.8369H23.8945L21.3824 32.0447C21.268 32.2855 21.0876 32.4891 20.8621 32.632C20.6367 32.7749 20.3753 32.8512 20.1082 32.8521H19.9626C19.6761 32.8196 19.4063 32.7004 19.1894 32.5107C18.9726 32.321 18.8189 32.0696 18.7491 31.7904L17.1432 25.4481L15.6222 28.4598C15.5041 28.6927 15.3237 28.8885 15.1009 29.0253C14.8781 29.1621 14.6217 29.2347 14.3601 29.2349H1.41579C1.0403 29.2349 0.680187 29.3838 0.414675 29.6487C0.149163 29.9137 0 30.2731 0 30.6479C0 31.0226 0.149163 31.382 0.414675 31.647C0.680187 31.912 1.0403 32.0609 1.41579 32.0609H1.42388Z" fill="#2D6D80"/>
</svg>
