<svg width="48" height="49" viewBox="0 0 48 49" fill="none" xmlns="http://www.w3.org/2000/svg">
<rect width="48" height="47.8421" transform="translate(0 0.920898)" fill="#F5FDF4"/>
<path d="M42.5 24.9209C42.5001 28.1819 41.5251 31.3698 39.698 34.0821C37.871 36.7943 35.274 38.9092 32.2349 40.1596C29.1958 41.4101 25.8509 41.7401 22.6227 41.1079C19.3944 40.4756 16.4276 38.9096 14.0969 36.6075C13.9244 36.4356 13.8276 36.203 13.8277 35.9605C13.8279 35.718 13.9249 35.4855 14.0977 35.3138C14.2705 35.1421 14.5049 35.0453 14.7495 35.0445C14.9942 35.0437 15.2292 35.139 15.4032 35.3095C17.1264 37.0113 19.2463 38.2659 21.5754 38.9623C23.9045 39.6586 26.3709 39.7752 28.7563 39.3018C31.1418 38.8284 33.3726 37.7796 35.2515 36.2481C37.1304 34.7167 38.5994 32.7498 39.5284 30.5217C40.4574 28.2935 40.8179 25.8727 40.5779 23.4736C40.3378 21.0745 39.5047 18.771 38.1522 16.767C36.7997 14.7631 34.9696 13.1204 32.8238 11.9844C30.6781 10.8484 28.2828 10.2541 25.85 10.2541C23.5165 10.2587 21.2168 10.8078 19.1373 11.8569C17.0577 12.9061 15.2567 14.4259 13.8801 16.2932C13.8086 16.3905 13.7184 16.4729 13.6147 16.5357C13.5111 16.5985 13.3959 16.6405 13.2759 16.6592C13.0335 16.6969 12.7858 16.6377 12.5875 16.4946C12.3891 16.3514 12.2562 16.136 12.2181 15.8958C12.18 15.6555 12.2397 15.4101 12.3842 15.2136C14.4525 12.3967 17.3672 10.3007 20.711 9.22594C24.0548 8.15113 27.6561 8.15259 30.999 9.23012C34.3419 10.3076 37.255 12.406 39.3209 15.2245C41.3868 18.043 42.4997 21.4372 42.5 24.9209ZM31.4 26.7542C30.6682 26.7542 29.9529 26.5392 29.3444 26.1363C28.7359 25.7334 28.2617 25.1607 27.9816 24.4907C27.7016 23.8207 27.6283 23.0835 27.7711 22.3722C27.9139 21.6609 28.2663 21.0076 28.7837 20.4948C29.3012 19.982 29.9604 19.6328 30.6782 19.4913C31.3959 19.3498 32.1398 19.4224 32.8159 19.6999C33.492 19.9775 34.0699 20.4474 34.4764 21.0504C34.883 21.6534 35.1 22.3623 35.1 23.0875C35.1 24.06 34.7102 24.9926 34.0163 25.6803C33.3224 26.3679 32.3813 26.7542 31.4 26.7542ZM7.35 30.4209C6.85935 30.4209 6.38879 30.2277 6.04185 29.8839C5.69491 29.5401 5.5 29.0738 5.5 28.5876V26.7542C5.5 25.2955 6.08473 23.8966 7.12556 22.8651C8.16638 21.8336 9.57805 21.2542 11.05 21.2542H20.3C21.2813 21.2542 22.2224 21.6405 22.9163 22.3281C23.6102 23.0158 24 23.9484 24 24.9209V28.5876H34.175C34.4203 28.5876 34.6556 28.6841 34.8291 28.856C35.0025 29.0279 35.1 29.2611 35.1 29.5042C35.1 29.7473 35.0025 29.9805 34.8291 30.1524C34.6556 30.3243 34.4203 30.4209 34.175 30.4209H7.35Z" fill="#2D6D80"/>
<circle cx="31.5" cy="22.4209" r="4.5" fill="#61277F"/>
</svg>
