<svg width="34" height="36" viewBox="0 0 34 36" fill="none" xmlns="http://www.w3.org/2000/svg">
<path d="M20.53 0.341367C20.3663 0.339766 20.204 0.370821 20.0525 0.432716C19.901 0.49461 19.7633 0.586102 19.6476 0.701836C19.5318 0.81757 19.4404 0.955222 19.3785 1.10674C19.3166 1.25826 19.2855 1.4206 19.2871 1.58427V2.75259H21.7729V1.58427C21.7719 1.25492 21.6407 0.939343 21.4078 0.706461C21.1749 0.47358 20.8594 0.342325 20.53 0.341367ZM8.67276 0.341367C8.34342 0.342325 8.02784 0.47358 7.79496 0.706461C7.56208 0.939343 7.43082 1.25492 7.42987 1.58427V2.75259H9.91566V1.58427C9.91726 1.4206 9.88621 1.25826 9.82431 1.10674C9.76242 0.955222 9.67093 0.81757 9.55519 0.701836C9.43946 0.586102 9.30181 0.49461 9.15029 0.432716C8.99877 0.370821 8.83643 0.339766 8.67276 0.341367ZM22.8418 2.75259H21.7729V6.38185C21.7719 6.71119 21.6407 7.02677 21.4078 7.25965C21.1749 7.49254 20.8594 7.62379 20.53 7.62475C20.3663 7.62635 20.204 7.59529 20.0525 7.5334C19.901 7.47151 19.7633 7.38001 19.6476 7.26428C19.5318 7.14855 19.4404 7.01089 19.3785 6.85937C19.3166 6.70786 19.2855 6.54551 19.2871 6.38185V2.75259H9.91566V6.38185C9.91726 6.54551 9.88621 6.70786 9.82431 6.85937C9.76242 7.01089 9.67093 7.14855 9.55519 7.26428C9.43946 7.38001 9.30181 7.47151 9.15029 7.5334C8.99877 7.59529 8.83643 7.62635 8.67276 7.62475C8.34342 7.62379 8.02784 7.49254 7.79496 7.25965C7.56208 7.02677 7.43082 6.71119 7.42987 6.38185V2.75259H6.36097C4.71299 2.75325 3.13269 3.4082 1.96739 4.5735C0.802094 5.7388 0.147143 7.31909 0.146484 8.96708V25.4479C0.147143 27.0959 0.802094 28.6762 1.96739 29.8415C3.13269 31.0068 4.71299 31.6617 6.36097 31.6624H12.65C12.9797 31.6624 13.2958 31.5314 13.5289 31.2984C13.762 31.0653 13.8929 30.7491 13.8929 30.4195C13.8929 30.0899 13.762 29.7737 13.5289 29.5406C13.2958 29.3075 12.9797 29.1766 12.65 29.1766H6.36097C5.87113 29.1773 5.38597 29.0813 4.93329 28.8941C4.48061 28.7069 4.0693 28.4323 3.72293 28.0859C3.37656 27.7396 3.10193 27.3283 2.91478 26.8756C2.72762 26.4229 2.63162 25.9377 2.63228 25.4479V11.9003H26.5705V13.9138C26.5714 14.2432 26.7027 14.5587 26.9356 14.7916C27.1685 15.0245 27.484 15.1558 27.8134 15.1567C27.9771 15.1583 28.1394 15.1273 28.2909 15.0654C28.4425 15.0035 28.5801 14.912 28.6959 14.7963C28.8116 14.6806 28.9031 14.5429 28.965 14.3914C29.0269 14.2398 29.0579 14.0775 29.0563 13.9138V8.96708C29.0557 7.31908 28.4008 5.73875 27.2354 4.57343C26.0701 3.40812 24.4898 2.75319 22.8418 2.75259Z" fill="#2D6D80"/>
<path d="M33.8537 19.2344V21.919C33.8564 23.3131 33.3781 24.6654 32.4996 25.7477C31.621 26.83 30.396 27.5761 29.0312 27.8601V28.7301C29.0283 30.0363 28.6395 31.3125 27.9136 32.3983C27.1877 33.4842 26.1571 34.3314 24.9513 34.8334C23.7455 35.3353 22.4182 35.4698 21.1361 35.2198C19.8541 34.9698 18.6746 34.3465 17.7457 33.4283C16.5059 32.1787 15.8092 30.4904 15.8068 28.7301V26.3438C15.2737 26.1158 14.8122 25.7477 14.4714 25.2787C14.1305 24.8096 13.923 24.257 13.8709 23.6795C13.8188 23.1021 13.924 22.5212 14.1753 21.9987C14.4266 21.4762 14.8147 21.0315 15.2984 20.7117C15.7821 20.3919 16.3433 20.2091 16.9225 20.1825C17.5017 20.156 18.0773 20.2867 18.5882 20.5609C19.0991 20.835 19.5263 21.2424 19.8243 21.7398C20.1224 22.2371 20.2803 22.8058 20.2812 23.3857C20.2827 24.0209 20.0942 24.642 19.7398 25.1692C19.3854 25.6963 18.8814 26.1054 18.2926 26.3438V28.7301C18.2867 29.276 18.3916 29.8174 18.6009 30.3216C18.8103 30.8258 19.1198 31.2822 19.5106 31.6634C20.0899 32.236 20.8256 32.6246 21.6252 32.7803C22.4247 32.936 23.2525 32.8518 24.0043 32.5383C24.7562 32.2248 25.3986 31.696 25.8507 31.0184C26.3028 30.3408 26.5445 29.5447 26.5454 28.7301V27.8601C25.1806 27.5762 23.9555 26.8301 23.077 25.7477C22.1984 24.6654 21.7202 23.3131 21.723 21.919V19.2344C21.7219 18.875 21.792 18.519 21.929 18.1868C22.0661 17.8546 22.2674 17.5527 22.5215 17.2986C22.7757 17.0445 23.0775 16.8431 23.4097 16.7061C23.7419 16.569 24.098 16.499 24.4573 16.5C24.787 16.5 25.1031 16.631 25.3362 16.864C25.5693 17.0971 25.7002 17.4133 25.7002 17.7429C25.7002 18.0725 25.5693 18.3887 25.3362 18.6218C25.1031 18.8549 24.787 18.9858 24.4573 18.9858C24.3915 18.986 24.3283 19.0122 24.2817 19.0588C24.2351 19.1054 24.2089 19.1685 24.2088 19.2344V21.919C24.2088 22.8684 24.5859 23.7789 25.2572 24.4502C25.9285 25.1215 26.839 25.4986 27.7883 25.4986C28.7377 25.4986 29.6481 25.1215 30.3194 24.4502C30.9907 23.7789 31.3679 22.8684 31.3679 21.919V19.2344C31.3677 19.1685 31.3414 19.1054 31.2948 19.0588C31.2483 19.0122 31.1851 18.986 31.1193 18.9858C30.7896 18.9858 30.4735 18.8549 30.2404 18.6218C30.0073 18.3887 29.8764 18.0725 29.8764 17.7429C29.8764 17.4133 30.0073 17.0971 30.2404 16.864C30.4735 16.631 30.7896 16.5 31.1193 16.5C31.4786 16.499 31.8347 16.569 32.1669 16.7061C32.4991 16.8431 32.8009 17.0445 33.055 17.2986C33.3091 17.5527 33.5105 17.8546 33.6476 18.1868C33.7846 18.519 33.8547 18.875 33.8537 19.2344Z" fill="#61277F"/>
</svg>
