<svg width="20" height="22" viewBox="0 0 20 22" fill="none" xmlns="http://www.w3.org/2000/svg">
<path d="M4 17H12M1 21H19M12 21C13.8565 21 15.637 20.2625 16.9497 18.9497C18.2625 17.637 19 15.8565 19 14C19 12.1435 18.2625 10.363 16.9497 9.05025C15.637 7.7375 13.8565 7 12 7H11M7 13H9M10 5V2C10 1.73478 9.89464 1.48043 9.70711 1.29289C9.51957 1.10536 9.26522 1 9 1H7C6.73478 1 6.48043 1.10536 6.29289 1.29289C6.10536 1.48043 6 1.73478 6 2V5M7 11C6.46957 11 5.96086 10.7893 5.58579 10.4142C5.21071 10.0391 5 9.53043 5 9V5H11V9C11 9.53043 10.7893 10.0391 10.4142 10.4142C10.0391 10.7893 9.53043 11 9 11H7Z" stroke="#545F71" stroke-width="2" stroke-linecap="round" stroke-linejoin="round"/>
</svg>
