<svg width="48" height="49" viewBox="0 0 48 49" fill="none" xmlns="http://www.w3.org/2000/svg">
<g opacity="0.6">
<path d="M13.5289 10.2543C10.2315 11.5497 8.6221 15.3181 9.91749 18.6548L12.5475 25.2103L21.5761 21.6381C22.2041 23.012 23.0677 24.3074 24.1669 25.4458C26.2081 27.487 28.8774 28.7824 31.743 29.1357C33.4309 34.121 30.9186 39.6167 25.9726 41.5794C20.8695 43.6206 15.0991 41.1083 13.0579 36.0053L6.65937 19.9109C4.61814 14.8078 7.13043 8.99818 12.2335 6.9962C15.8842 5.54378 19.8489 6.40738 22.5967 8.88041C21.8901 9.94028 21.3406 11.0787 20.9873 12.217C19.2208 10.058 16.2375 9.19445 13.5289 10.2543ZM16.1197 34.2781C17.3758 37.4577 20.4377 39.3811 23.6958 39.4204C21.6153 38.4783 19.8881 36.8296 18.9853 34.5528L16.1982 27.5263L13.8429 28.4684L16.1197 34.2781Z" fill="#2D6D80"/>
<path d="M39.146 31.2759C35.2991 35.1229 29.0184 35.1229 25.1714 31.2759C23.248 29.3525 22.2666 26.8009 22.2666 24.2886L41.5013 27.3897C41.0302 28.8029 40.2844 30.1375 39.146 31.2759Z" fill="#61277F"/>
<path d="M22.8159 21.1889C23.287 19.7758 24.0328 18.4411 25.1712 17.3027C29.0181 13.4558 35.2988 13.4558 39.1458 17.3027C41.0693 19.2262 42.0506 21.7778 42.0506 24.29L22.8159 21.1889Z" fill="#61277F"/>
</g>
</svg>
