<svg width="16" height="16" viewBox="0 0 16 16" fill="none" xmlns="http://www.w3.org/2000/svg">
<path d="M13 1C13 0.447715 12.5587 0 12.0144 0L0.985579 0C0.441259 0 0 0.447715 0 1C0 1.55228 0.441259 2 0.985579 2H12.0144C12.5587 2 13 1.55228 13 1ZM8 8C8 7.44772 7.55874 7 7.01442 7H0.985581C0.441261 7 0 7.44772 0 8C0 8.55228 0.441259 9 0.985579 9H7.01442C7.55874 9 8 8.55228 8 8ZM13 15C13 14.4477 12.5587 14 12.0144 14H0.985579C0.441259 14 0 14.4477 0 15C0 15.5523 0.441259 16 0.985579 16H12.0144C12.5587 16 13 15.5523 13 15ZM15.7116 5.52085C16.0961 5.13047 16.0961 4.49776 15.7116 4.10738C15.3268 3.71671 14.7026 3.71671 14.3178 4.10738L10.8353 7.64264C10.643 7.83788 10.643 8.15432 10.8353 8.34956L14.3178 11.8848C14.7026 12.2755 15.3268 12.2755 15.7116 11.8848C16.0961 11.4945 16.0961 10.8617 15.7116 10.4714L13.6215 8.34956C13.4291 8.15432 13.4291 7.83788 13.6215 7.64264L15.7116 5.52085Z" fill="white"/>
</svg>