<svg width="16" height="16" viewBox="0 0 16 16" fill="none" xmlns="http://www.w3.org/2000/svg">
<path d="M3 1C3 0.447715 3.44126 0 3.98558 0L15.0144 0C15.5587 0 16 0.447715 16 1C16 1.55228 15.5587 2 15.0144 2H3.98558C3.44126 2 3 1.55228 3 1ZM8 8C8 7.44772 8.44126 7 8.98558 7H15.0144C15.5587 7 16 7.44772 16 8C16 8.55228 15.5587 9 15.0144 9H8.98558C8.44126 9 8 8.55228 8 8ZM3 15C3 14.4477 3.44126 14 3.98558 14H15.0144C15.5587 14 16 14.4477 16 15C16 15.5523 15.5587 16 15.0144 16H3.98558C3.44126 16 3 15.5523 3 15ZM0.288416 5.52085C-0.0961342 5.13047 -0.096138 4.49776 0.288408 4.10738C0.67324 3.71671 1.29739 3.71671 1.68222 4.10738L5.1647 7.64264C5.35702 7.83788 5.35702 8.15432 5.1647 8.34956L1.68222 11.8848C1.29739 12.2755 0.673243 12.2755 0.288412 11.8848C-0.0961342 11.4945 -0.0961361 10.8617 0.288412 10.4714L2.37853 8.34956C2.57086 8.15432 2.57086 7.83788 2.37853 7.64264L0.288416 5.52085Z" fill="#2D6D80"/>
</svg>
