<svg width="48" height="48" viewBox="0 0 48 48" fill="none" xmlns="http://www.w3.org/2000/svg">
<g opacity="0.6">
<path d="M36.3127 16.6935V20.3482C36.3127 20.5111 36.2479 20.6673 36.1328 20.7825C36.0176 20.8977 35.8613 20.9624 35.6984 20.9624H31.9209V24.7399C31.9209 24.9028 31.8562 25.0591 31.741 25.1743C31.6258 25.2895 31.4696 25.3542 31.3067 25.3542H27.6213C27.4584 25.3542 27.3021 25.2895 27.1869 25.1743C27.0718 25.0591 27.007 24.9028 27.007 24.7399V20.9624H23.2602C23.0973 20.9624 22.9411 20.8977 22.8259 20.7825C22.7107 20.6673 22.646 20.5111 22.646 20.3482V16.6935C22.646 16.5306 22.7107 16.3744 22.8259 16.2592C22.9411 16.144 23.0973 16.0793 23.2602 16.0793H27.0378V12.3017C27.0378 12.1388 27.1025 11.9826 27.2177 11.8674C27.3329 11.7522 27.4891 11.6875 27.652 11.6875H31.3374C31.5003 11.6875 31.6565 11.7522 31.7717 11.8674C31.8869 11.9826 31.9516 12.1388 31.9516 12.3017V16.0793H35.7291C35.8867 16.0871 36.0351 16.1553 36.1437 16.2697C36.2524 16.384 36.3129 16.5358 36.3127 16.6935Z" fill="#61277F"/>
<path d="M44.1998 18.7728C44.1996 25.248 40.0902 30.936 33.9685 32.9963C33.8429 33.0548 33.7218 33.0547 33.6425 33.0546L33.6332 33.0546C33.1988 33.0546 32.8265 32.7822 32.6689 32.3652C32.4493 31.8157 32.7813 31.2276 33.3129 31.066C38.5871 29.3205 42.1583 24.3883 42.1583 18.8161C42.1583 11.6698 36.3729 5.8839 29.2261 5.8839C23.6558 5.8839 18.7216 9.41332 16.9325 14.7295C16.7668 15.2802 16.1695 15.535 15.6486 15.3785C15.0955 15.2141 14.8394 14.6153 14.9964 14.0933L14.9977 14.0889L14.9978 14.0889C17.0127 7.91473 22.747 3.8003 29.2258 3.80007V3.8C37.5002 3.8 44.2423 10.5401 44.1998 18.7728ZM44.1998 18.7728C44.1998 18.773 44.1998 18.7732 44.1998 18.7733L43.9998 18.7723H44.1998C44.1998 18.7725 44.1998 18.7726 44.1998 18.7728Z" fill="#2D6D80" stroke="#2D6D80" stroke-width="0.4"/>
<path d="M22.5024 32.2983L22.5019 32.299L21.1848 33.9745C19.8703 33.1843 18.6279 32.2981 17.1852 30.8553C15.6983 29.3685 14.8122 28.1237 14.0205 26.771L15.6977 25.4526L15.6984 25.452C17.0238 24.3999 17.4382 22.5686 16.6597 21.0564L16.6594 21.0559L13.6358 15.2245L13.6352 15.2234C13.1796 14.3585 12.3585 13.6708 11.3931 13.4392C10.4282 13.1644 9.37601 13.3493 8.55056 13.9442L4.796 16.4478L4.79599 16.4478L4.79337 16.4496C3.48548 17.3521 2.71547 18.886 2.8074 20.4694L2.80734 20.4694L2.80775 20.4744C2.89341 21.5057 3.02425 22.9927 3.33207 24.0942C4.50865 28.5388 7.25086 33.1037 11.1147 36.9697L11.1147 36.9697C14.9791 40.8341 19.5444 43.5764 23.9916 44.7527L23.9916 44.7528L23.9959 44.7538C25.0913 45.0174 26.5725 45.1908 27.6198 45.235L27.6198 45.2352H27.6283H27.9303C29.4661 45.2352 30.8702 44.4667 31.6851 43.1541C31.6853 43.1537 31.6856 43.1534 31.6858 43.153L34.1031 39.3551C34.6541 38.5265 34.7896 37.4747 34.5614 36.5619L34.5614 36.5619C34.3313 35.6431 33.6877 34.8181 32.7724 34.3601C32.7721 34.3599 32.7717 34.3597 32.7714 34.3595L26.8981 31.3369C25.386 30.5585 23.5546 30.971 22.5024 32.2983ZM32.577 37.0944C32.6824 37.4868 32.6239 37.8738 32.4307 38.2019L32.3833 38.2764L29.9646 42.0765C29.9644 42.0767 29.9643 42.0769 29.9641 42.0772C29.5233 42.7567 28.7652 43.1951 27.9287 43.1951H27.7611C26.77 43.1512 25.4107 43.0235 24.5282 42.7709L24.5282 42.7708L24.5235 42.7696C20.417 41.7004 16.1718 39.1302 12.5645 35.5231C8.95698 31.8702 6.38714 27.6238 5.31755 23.5617C5.14889 22.8414 4.97669 21.6888 4.89121 20.3157C4.8509 19.4316 5.25321 18.5934 5.96827 18.1172L5.96837 18.1172L9.72548 15.6118C9.72558 15.6118 9.72569 15.6117 9.72579 15.6116C9.948 15.4646 10.2522 15.3853 10.5228 15.3853C10.6506 15.3853 10.7585 15.3857 10.9038 15.4225C11.3209 15.5369 11.6224 15.7999 11.8146 16.1439L14.8362 21.9712C15.1388 22.578 14.9881 23.3398 14.4562 23.799L12.0426 25.6551L12.0424 25.6548L12.0341 25.662C11.681 25.9658 11.4973 26.5014 11.7764 26.9515C12.7753 28.7319 13.8216 30.3452 15.7386 32.2604C17.611 34.1328 19.18 35.1791 20.9617 36.1788C21.397 36.4475 21.9822 36.3362 22.302 35.9123L24.1582 33.5386C24.1582 33.5385 24.1582 33.5385 24.1583 33.5384C24.5762 33.0081 25.3353 32.8182 25.9813 33.1597L25.9832 33.1607L31.8586 36.1844L31.8607 36.1854C32.2416 36.3759 32.5009 36.7147 32.574 37.0816L32.5736 37.0817L32.577 37.0944Z" fill="#2D6D80" stroke="#2D6D80" stroke-width="0.4"/>
</g>
</svg>
