<svg width="46" height="46" viewBox="0 0 46 46" fill="none" xmlns="http://www.w3.org/2000/svg">
<path d="M21.1 42C20.5617 42 20.1107 41.8176 19.7472 41.4528C19.3837 41.088 19.2013 40.6371 19.2 40.1V30.6C19.2 30.3783 19.2158 30.1567 19.2475 29.935C19.2792 29.7133 19.3267 29.5075 19.39 29.3175L21.385 23.665C21.6383 22.905 22.0975 22.2875 22.7625 21.8125C23.4275 21.3375 24.1717 21.1 24.995 21.1H36.205C37.0283 21.1 37.7725 21.3375 38.4375 21.8125C39.1025 22.2875 39.5617 22.905 39.815 23.665L41.81 29.3175C41.8733 29.5075 41.9208 29.7133 41.9525 29.935C41.9842 30.1567 42 30.3783 42 30.6V40.1C42 40.6383 41.8182 41.0899 41.4547 41.4547C41.0912 41.8195 40.6396 42.0013 40.1 42C39.5604 41.9987 39.1095 41.8163 38.7472 41.4528C38.3849 41.0893 38.2025 40.6383 38.2 40.1V39.15H23V40.1C23 40.6383 22.8176 41.0899 22.4528 41.4547C22.088 41.8195 21.6371 42.0013 21.1 42ZM23 27.75H38.2L36.87 23.95H24.33L23 27.75ZM24.9 35.35C25.4383 35.35 25.8899 35.1676 26.2547 34.8028C26.6195 34.438 26.8013 33.9871 26.8 33.45C26.7987 32.9129 26.6163 32.462 26.2528 32.0972C25.8893 31.7324 25.4383 31.55 24.9 31.55C24.3617 31.55 23.9107 31.7324 23.5472 32.0972C23.1837 32.462 23.0013 32.9129 23 33.45C22.9987 33.9871 23.1811 34.4386 23.5472 34.8047C23.9133 35.1708 24.3642 35.3525 24.9 35.35ZM36.3 35.35C36.8383 35.35 37.2899 35.1676 37.6547 34.8028C38.0195 34.438 38.2013 33.9871 38.2 33.45C38.1987 32.9129 38.0163 32.462 37.6528 32.0972C37.2893 31.7324 36.8383 31.55 36.3 31.55C35.7617 31.55 35.3107 31.7324 34.9472 32.0972C34.5837 32.462 34.4013 32.9129 34.4 33.45C34.3987 33.9871 34.5811 34.4386 34.9472 34.8047C35.3133 35.1708 35.7642 35.3525 36.3 35.35ZM11.6 26.8V23H15.4V26.8H11.6ZM21.1 15.4V11.6H24.9V15.4H21.1ZM11.6 34.4V30.6H15.4V34.4H11.6ZM11.6 42V38.2H15.4V42H11.6ZM4 42V19.2C4 18.155 4.3724 17.2607 5.1172 16.5172C5.862 15.7737 6.75627 15.4013 7.8 15.4H13.5V7.8C13.5 6.755 13.8724 5.86073 14.6172 5.1172C15.362 4.37367 16.2563 4.00127 17.3 4H28.7C29.745 4 30.6399 4.3724 31.3847 5.1172C32.1295 5.862 32.5013 6.75627 32.5 7.8V17.3H28.7V7.8H17.3V19.2H7.8V42H4Z" fill="#61277F"/>
<g clip-path="url(#clip0_11414_16081)">
<path d="M20.9922 41.7604C20.4572 41.7604 20.0092 41.5792 19.6479 41.2167C19.2867 40.8542 19.1054 40.4061 19.1042 39.8724V30.4323C19.1042 30.212 19.1199 29.9918 19.1514 29.7715C19.1828 29.5512 19.23 29.3467 19.293 29.1579L21.2754 23.541C21.5271 22.7858 21.9834 22.1722 22.6442 21.7002C23.305 21.2282 24.0445 20.9922 24.8626 20.9922H36.002C36.8201 20.9922 37.5596 21.2282 38.2204 21.7002C38.8812 22.1722 39.3375 22.7858 39.5892 23.541L41.5716 29.1579C41.6345 29.3467 41.6818 29.5512 41.7132 29.7715C41.7447 29.9918 41.7604 30.212 41.7604 30.4323V39.8724C41.7604 40.4073 41.5798 40.8561 41.2186 41.2186C40.8573 41.5811 40.4086 41.7617 39.8724 41.7604C39.3362 41.7592 38.8881 41.5779 38.5281 41.2167C38.1681 40.8554 37.9869 40.4073 37.9844 39.8724V38.9284H22.8802V39.8724C22.8802 40.4073 22.699 40.8561 22.3365 41.2186C21.974 41.5811 21.5259 41.7617 20.9922 41.7604ZM22.8802 27.6003H37.9844L36.6628 23.8242H24.2018L22.8802 27.6003ZM24.7682 35.1523C25.3032 35.1523 25.7519 34.9711 26.1144 34.6086C26.4769 34.2461 26.6575 33.798 26.6562 33.2643C26.655 32.7306 26.4737 32.2826 26.1125 31.9201C25.7513 31.5576 25.3032 31.3763 24.7682 31.3763C24.2333 31.3763 23.7852 31.5576 23.424 31.9201C23.0627 32.2826 22.8815 32.7306 22.8802 33.2643C22.879 33.798 23.0602 34.2467 23.424 34.6105C23.7877 34.9742 24.2358 35.1549 24.7682 35.1523ZM36.0964 35.1523C36.6313 35.1523 37.08 34.9711 37.4425 34.6086C37.805 34.2461 37.9856 33.798 37.9844 33.2643C37.9831 32.7306 37.8019 32.2826 37.4406 31.9201C37.0794 31.5576 36.6313 31.3763 36.0964 31.3763C35.5614 31.3763 35.1133 31.5576 34.7521 31.9201C34.3908 32.2826 34.2096 32.7306 34.2083 33.2643C34.2071 33.798 34.3883 34.2467 34.7521 34.6105C35.1158 34.9742 35.5639 35.1549 36.0964 35.1523ZM11.5521 26.6562V22.8802H15.3281V26.6562H11.5521ZM20.9922 15.3281V11.5521H24.7682V15.3281H20.9922ZM11.5521 34.2083V30.4323H15.3281V34.2083H11.5521ZM11.5521 41.7604V37.9844H15.3281V41.7604H11.5521ZM4 41.7604V19.1042C4 18.0658 4.37005 17.1771 5.11016 16.4383C5.85026 15.6994 6.73889 15.3294 7.77604 15.3281H13.4401V7.77604C13.4401 6.73763 13.8102 5.849 14.5503 5.11016C15.2904 4.37131 16.179 4.00126 17.2161 4H28.5443C29.5827 4 30.4719 4.37005 31.212 5.11016C31.9522 5.85026 32.3216 6.73889 32.3203 7.77604V17.2161H28.5443V7.77604H17.2161V19.1042H7.77604V41.7604H4Z" fill="#2D6D80"/>
</g>
<defs>
<clipPath id="clip0_11414_16081">
<rect width="26" height="27" fill="white" transform="translate(18 18)"/>
</clipPath>
</defs>
</svg>
