<svg width="48" height="49" viewBox="0 0 48 49" fill="none" xmlns="http://www.w3.org/2000/svg">
<g opacity="0.6">
<path d="M29.2338 24.8362C29.2338 21.2215 26.6072 18.2109 23.1627 17.6075V15.4358C24.9456 14.891 26.2465 13.2313 26.2465 11.2726C26.2465 8.87207 24.2934 6.91895 21.8929 6.91895C19.4924 6.91895 17.5393 8.87207 17.5393 11.2726C17.5393 13.2313 18.8402 14.891 20.623 15.4358V17.6075C19.5433 17.7966 18.5445 18.222 17.6813 18.829L16.1436 17.2914C17.0191 15.6455 16.7654 13.5521 15.3803 12.167C14.5581 11.3445 13.4647 10.8915 12.3018 10.8915C11.1389 10.8915 10.0455 11.3445 9.2236 12.1667C8.40112 12.9888 7.94818 14.0823 7.94818 15.2451C7.94818 16.408 8.40112 17.5015 9.22329 18.3233C10.0455 19.1458 11.1389 19.5988 12.3018 19.5988C13.028 19.5988 13.7271 19.422 14.3501 19.089L15.8856 20.6246C15.2786 21.4878 14.8533 22.4866 14.6641 23.5664H12.4925C11.9476 21.7835 10.288 20.4826 8.32919 20.4826C5.92871 20.4826 3.97559 22.4357 3.97559 24.8362C3.97559 27.2367 5.92871 29.1898 8.32919 29.1898C10.288 29.1898 11.9476 27.8889 12.4925 26.1061H14.6641C14.8533 27.1858 15.2786 28.1846 15.8856 29.0478L14.3501 30.5834C13.7271 30.2504 13.028 30.0737 12.3018 30.0737C11.1389 30.0737 10.0458 30.5266 9.2236 31.3488L9.22329 31.3491C8.40112 32.1713 7.94818 33.2644 7.94818 34.4273C7.94818 35.5902 8.40112 36.6836 9.22329 37.5055C10.0455 38.328 11.1389 38.7809 12.3018 38.7809C13.4647 38.7809 14.5581 38.328 15.3803 37.5055C16.7654 36.1204 17.0191 34.027 16.1436 32.3811L17.6813 30.8435C18.5445 31.4505 19.5433 31.8759 20.623 32.065V34.2367C18.8402 34.7815 17.5393 36.4411 17.5393 38.3999C17.5393 40.8004 19.4924 42.7535 21.8929 42.7535C24.2934 42.7535 26.2465 40.8004 26.2465 38.3999C26.2465 36.4411 24.9456 34.7815 23.1627 34.2367V32.065C26.6072 31.4615 29.2338 28.4509 29.2338 24.8362ZM26.6942 24.8362C26.6942 27.4838 24.5404 29.6375 21.8929 29.6375C19.2453 29.6375 17.0916 27.4838 17.0916 24.8362C17.0916 22.1887 19.2453 20.035 21.8929 20.035C24.5404 20.035 26.6942 22.1887 26.6942 24.8362ZM20.0789 11.2726C20.0789 10.2724 20.8927 9.45863 21.8929 9.45863C22.893 9.45863 23.7068 10.2724 23.7068 11.2726C23.7068 12.2727 22.893 13.0862 21.8929 13.0862C20.8927 13.0862 20.0789 12.2727 20.0789 11.2726ZM11.0192 16.5274C10.6767 16.1851 10.4879 15.7297 10.4879 15.2451C10.4879 14.7606 10.6767 14.3052 11.0195 13.9626C11.3618 13.62 11.8175 13.4312 12.3018 13.4312C12.7864 13.4312 13.2418 13.62 13.5847 13.9626C14.2918 14.6698 14.2918 15.8205 13.5847 16.5277C13.2418 16.8703 12.7864 17.0591 12.3018 17.0591C11.8175 17.0591 11.3618 16.8703 11.0192 16.5274ZM8.32919 26.6502C7.32907 26.6502 6.51527 25.8364 6.51527 24.8362C6.51527 23.8361 7.32907 23.0223 8.32919 23.0223C9.32932 23.0223 10.1428 23.8361 10.1428 24.8362C10.1428 25.8364 9.32932 26.6502 8.32919 26.6502ZM13.5847 35.7099C13.2418 36.0524 12.7864 36.2412 12.3018 36.2412C11.8175 36.2412 11.3618 36.0524 11.0192 35.7096C10.6767 35.3673 10.4879 34.9119 10.4879 34.4273C10.4879 33.9428 10.6767 33.4873 11.0192 33.1451C11.0192 33.1448 11.0192 33.1448 11.0195 33.1448C11.3618 32.8022 11.8175 32.6134 12.3018 32.6134C12.7864 32.6134 13.2418 32.8022 13.5847 33.1448C14.2918 33.8519 14.2918 35.0027 13.5847 35.7099ZM23.7068 38.3999C23.7068 39.4 22.893 40.2138 21.8929 40.2138C20.8927 40.2138 20.0789 39.4 20.0789 38.3999C20.0789 37.3998 20.8927 36.5863 21.8929 36.5863C22.893 36.5863 23.7068 37.3998 23.7068 38.3999Z" fill="#2D6D80"/>
<path d="M38.1292 39.6695C37.428 39.6695 36.8594 39.101 36.8594 38.3997V33.4676C36.8594 32.7663 37.428 32.1978 38.1292 32.1978C38.8305 32.1978 39.3991 32.7663 39.3991 33.4676V38.3997C39.3991 39.101 38.8305 39.6695 38.1292 39.6695Z" fill="#61277F"/>
<path d="M42.7545 27.337H39.6707C38.9695 27.337 38.4009 26.7685 38.4009 26.0672C38.4009 25.3659 38.9695 24.7974 39.6707 24.7974H42.7545C43.4558 24.7974 44.0243 25.3659 44.0243 26.0672C44.0243 26.7685 43.4558 27.337 42.7545 27.337Z" fill="#61277F"/>
<path d="M42.7545 19.9406H39.6707C38.9695 19.9406 38.4009 19.372 38.4009 18.6707C38.4009 17.9695 38.9695 17.4009 39.6707 17.4009H42.7545C43.4558 17.4009 44.0243 17.9695 44.0243 18.6707C44.0243 19.372 43.4558 19.9406 42.7545 19.9406Z" fill="#61277F"/>
<path d="M41.3758 34.7377H34.8827C33.4222 34.7377 32.2339 33.5494 32.2339 32.0889V14.0302C32.2339 11.8092 34.0407 10.0024 36.2614 10.0024H39.9971C42.2178 10.0024 44.0246 11.8092 44.0246 14.0302V32.0889C44.0246 33.5494 42.8363 34.7377 41.3758 34.7377ZM36.2614 12.5421C35.441 12.5421 34.7736 13.2096 34.7736 14.0302V32.0889C34.7736 32.149 34.8226 32.198 34.8827 32.198H41.3758C41.4359 32.198 41.4849 32.149 41.4849 32.0889V14.0302C41.4849 13.2096 40.8174 12.5421 39.9971 12.5421H36.2614Z" fill="#61277F"/>
</g>
</svg>
